<svg xmlns="http://www.w3.org/2000/svg" viewBox="0 0 435 236.87"><defs><style>.cls-1,.cls-2,.cls-3{fill:#fff;}.cls-2{font-size:49.39px;letter-spacing:0.03em;}.cls-2,.cls-3{font-family:Impact, Impact;}.cls-3{font-size:44.45px;letter-spacing:0.17em;}</style></defs><title>Asset 1</title><g id="Layer_2" data-name="Layer 2"><g id="Layer_5" data-name="Layer 5"><path class="cls-1" d="M388.23,1l4.55,107.4c-41.88-.32-80.69,3-115,12.4-23.57,6.47-58.94,18.08-85.2,46.14-2.12,2.26-3.76,4.19-4.84,5.5,9.46-13.07,28-34.63,60.45-52.08,51.72-27.86,104.71-27,123.38-25.95l-3.79-83.14a169.83,169.83,0,0,0-44.8,4.37,157.92,157.92,0,0,0-24.86,8.08A108.93,108.93,0,0,1,325.86,8.19C352.21-1.91,376.9-.36,388.23,1Z"/><path class="cls-1" d="M394.62,39.11v12h11.56l4,75.19a290.14,290.14,0,0,0-113.1,1.08c-54.34,11.53-89.45,35.68-104.93,47.83a270.93,270.93,0,0,1,66.1-29.7c75.49-22.5,143.85-8.66,171.66-1.56L424.89,39.11Z"/><path class="cls-1" d="M195.13,178a287.75,287.75,0,0,1,71.4-23.11c64.85-12.05,119.18.15,145,7.57l1-15.43L432,148.71l3,36.42A398.11,398.11,0,0,0,318.76,163.5,404.35,404.35,0,0,0,195.13,178Z"/><path class="cls-1" d="M197.59,185.29"/><path class="cls-1" d="M188.68,171.4"/><path class="cls-1" d="M191.52,183.13"/><text class="cls-2" transform="translate(70.54 80.96) scale(1.1 1)">ЕТАЛОН Д&amp;Д</text><text class="cls-3" transform="translate(24.27 222.17) scale(1.23 1)">КНИЖАРНИЦИ</text><path class="cls-1" d="M22.38,127.79l4.3-76.68h9.95v-10H8l-5.82,104c74.9-8.6,139.59-8,187.86,8.17l4.3-5.6C158.12,129.46,98.62,124.13,22.38,127.79Z"/><path class="cls-1" d="M182.17,165.79C129,159,67,168.14,0,185.24L.83,150.1l18.79-1.8v15.23c65-13.27,119-15,165.47-3.7Z"/><path class="cls-1" d="M39.73,110.74c68-.52,122.63,9.1,161.81,30.66l5.82-5.35c-27-19.39-76.19-32.39-145.89-39.51L63.75,13c13.49-1.31,25.77-.21,37.32,1.44a166.19,166.19,0,0,1,38.62,10l-2-1C122.05,13,101.81,7,78.22,4.22a306.4,306.4,0,0,0-35-1.92Z"/></g></g></svg>